<?xml version="1.0" standalone="no"?>
<!DOCTYPE svg PUBLIC "-//W3C//DTD SVG 20010904//EN"
 "http://www.w3.org/TR/2001/REC-SVG-20010904/DTD/svg10.dtd">
<svg version="1.0" xmlns="http://www.w3.org/2000/svg"
 width="3104.000000pt" height="1764.000000pt" viewBox="0 0 3104.000000 1764.000000"
 preserveAspectRatio="xMidYMid meet">

<g transform="translate(0.000000,1764.000000) scale(0.100000,-0.100000)"
fill="#000000" stroke="none">
<path d="M23380 13453 c-555 -37 -975 -218 -1322 -569 -263 -266 -407 -539
-474 -899 -27 -142 -27 -455 0 -574 73 -334 241 -617 546 -921 295 -295 545
-471 1200 -847 491 -282 621 -363 800 -502 319 -245 448 -454 514 -833 l7 -38
469 0 469 0 3 38 c6 74 -11 299 -31 399 -37 188 -118 393 -215 546 -145 226
-398 452 -831 742 -231 154 -405 260 -835 505 -446 254 -565 330 -738 469
-266 215 -394 414 -459 714 -23 106 -26 494 -4 602 45 230 137 410 290 569
245 254 546 345 1016 307 261 -21 480 -78 621 -162 124 -73 226 -206 269 -349
11 -38 21 -143 31 -345 9 -159 17 -296 19 -302 3 -10 62 -13 250 -13 l245 0 0
590 0 589 -70 21 c-162 47 -210 60 -309 85 -370 93 -780 156 -1131 175 -178 9
-233 10 -330 3z"/>
<path d="M14280 13361 c-9 -18 -259 -609 -470 -1111 -43 -102 -272 -646 -510
-1210 -238 -564 -465 -1104 -506 -1200 -40 -96 -206 -489 -367 -873 l-295
-697 181 2 180 3 78 180 78 180 1457 0 1458 0 76 -180 76 -180 502 -3 502 -2
-16 37 c-28 69 -579 1387 -1266 3033 -132 316 -359 861 -505 1210 -146 349
-284 679 -306 733 l-39 97 -149 0 c-137 0 -149 -2 -159 -19z m482 -2826 c351
-842 638 -1533 638 -1537 0 -5 -585 -8 -1300 -8 -715 0 -1300 4 -1300 8 0 5
70 174 156 378 253 597 365 863 483 1142 61 144 160 378 220 520 60 141 161
381 225 532 64 151 138 326 164 388 32 76 52 111 61 110 9 -2 263 -598 653
-1533z"/>
<path d="M4750 13160 l0 -129 33 -6 c17 -3 88 -10 157 -15 241 -20 437 -64
512 -115 62 -42 92 -122 119 -315 9 -62 14 -606 19 -1975 6 -1650 9 -1907 23
-2022 15 -125 32 -241 43 -290 l4 -23 456 0 456 0 -7 33 c-13 58 -18 4004 -5
4166 23 292 57 394 148 440 91 46 262 81 492 101 69 6 142 13 163 16 l38 6 -3
126 -3 127 -1322 3 -1323 2 0 -130z"/>
<path d="M9150 13160 l0 -129 33 -5 c17 -3 88 -11 157 -16 222 -19 403 -56
491 -101 56 -28 84 -69 107 -156 48 -179 47 -136 47 -2278 0 -1111 -3 -2062
-7 -2112 l-8 -93 218 0 219 0 12 138 c26 307 31 609 31 2197 0 1005 4 1725 10
1825 15 246 45 387 93 438 64 69 250 118 542 141 72 6 147 14 168 17 l37 6 0
129 0 129 -1075 0 -1075 0 0 -130z"/>
<path d="M18120 13160 l0 -129 33 -5 c17 -3 111 -15 207 -26 293 -34 440 -73
493 -128 35 -36 63 -117 85 -240 15 -88 17 -290 22 -2227 l5 -2130 473 -3 472
-2 0 2038 c0 1291 4 2086 10 2168 12 146 34 281 56 333 44 106 155 145 534
191 96 11 190 23 208 26 l32 5 0 129 0 130 -1315 0 -1315 0 0 -130z"/>
<path d="M5760 7877 c0 -9 50 -149 70 -194 l22 -53 405 0 405 0 -6 23 c-4 12
-19 68 -33 125 l-27 102 -418 0 c-230 0 -418 -1 -418 -3z"/>
<path d="M9925 7868 c-2 -7 -16 -56 -30 -108 -15 -52 -31 -102 -36 -112 -9
-18 0 -18 193 -16 l202 3 19 50 c11 28 30 83 42 123 l23 72 -204 0 c-155 0
-206 -3 -209 -12z"/>
<path d="M11955 7848 c-7 -18 -31 -75 -53 -125 l-41 -93 177 0 177 0 37 88
c21 48 44 104 53 125 l15 37 -175 0 -176 0 -14 -32z"/>
<path d="M15890 7871 c0 -5 22 -60 49 -123 l48 -113 501 -3 500 -2 -52 122
-52 123 -497 3 c-296 1 -497 -2 -497 -7z"/>
<path d="M18960 7755 l0 -125 475 0 475 0 0 125 0 125 -475 0 -475 0 0 -125z"/>
<path d="M21510 7755 l0 -125 241 0 242 0 -7 92 c-3 50 -6 106 -6 125 l0 33
-235 0 -235 0 0 -125z"/>
<path d="M24652 7787 c-6 -51 -14 -107 -18 -125 l-6 -32 415 0 415 0 26 68
c21 57 56 168 56 179 0 2 -197 3 -438 3 l-439 0 -11 -93z"/>
<path d="M6006 7343 c20 -32 61 -91 90 -130 l54 -73 410 0 410 0 -66 82 c-36
44 -80 103 -96 130 l-30 48 -404 0 -405 0 37 -57z"/>
<path d="M9679 7333 c-29 -38 -80 -96 -112 -130 l-60 -63 225 0 225 0 55 78
c75 106 118 170 118 176 0 3 -90 6 -199 6 l-199 0 -53 -67z"/>
<path d="M11753 7383 c-3 -10 -30 -69 -59 -130 l-53 -113 202 0 202 0 34 113
c18 61 36 120 38 130 5 16 -8 17 -176 17 -164 0 -182 -2 -188 -17z"/>
<path d="M16075 7383 c4 -10 17 -67 30 -128 l22 -110 552 -3 c303 -1 551 0
551 2 0 2 -30 61 -66 130 l-66 126 -515 0 c-487 0 -515 -1 -508 -17z"/>
<path d="M18942 7286 c-6 -63 -15 -121 -18 -130 -6 -15 41 -16 511 -16 487 0
516 1 511 18 -6 17 -25 191 -26 225 0 16 -30 17 -483 17 l-483 0 -12 -114z"/>
<path d="M21510 7270 l0 -130 311 0 311 0 -16 23 c-40 55 -76 126 -92 179
l-18 58 -248 0 -248 0 0 -130z"/>
<path d="M24529 7348 c-13 -28 -47 -87 -75 -130 l-52 -78 379 0 379 0 75 101
c42 56 82 114 91 130 l15 29 -394 0 -394 0 -24 -52z"/>
<path d="M6306 6979 c30 -33 182 -152 253 -198 l64 -41 516 0 516 0 -102 35
c-123 41 -240 99 -350 171 l-81 54 -418 0 -417 0 19 -21z"/>
<path d="M9265 6954 c-125 -82 -243 -136 -400 -185 l-90 -28 365 0 365 -1 55
37 c70 46 185 140 229 187 l35 36 -245 0 -244 0 -70 -46z"/>
<path d="M11548 6967 c-53 -81 -156 -109 -490 -133 l-98 -6 0 -44 0 -44 870 0
870 0 0 45 0 45 -105 0 c-184 0 -352 23 -453 62 -52 20 -102 66 -102 94 0 12
-38 14 -235 14 l-235 0 -22 -33z"/>
<path d="M16120 6967 c-39 -83 -272 -137 -597 -137 l-113 0 0 -45 0 -45 1248
2 1247 3 3 41 3 40 -143 13 c-132 11 -199 23 -286 50 -45 14 -130 69 -143 92
-9 18 -33 19 -607 19 l-597 0 -15 -33z"/>
<path d="M18865 6990 c-21 -34 -143 -84 -260 -109 -103 -21 -375 -51 -466 -51
-16 0 -19 -7 -19 -45 l0 -45 1315 0 1315 0 0 45 c0 40 -3 45 -22 45 -41 0
-251 19 -338 31 -177 23 -321 69 -376 120 -20 18 -41 19 -582 19 -378 0 -563
-3 -567 -10z"/>
<path d="M21510 6870 l0 -130 743 1 742 1 -85 19 c-148 33 -300 88 -456 165
l-150 74 -397 0 -397 0 0 -130z"/>
<path d="M24207 6959 c-98 -79 -254 -153 -412 -194 l-90 -24 494 -1 494 0 96
69 c79 56 169 129 226 182 5 5 -151 9 -375 8 l-385 0 -48 -40z"/>
<path d="M6871 6615 c15 -14 237 -90 352 -119 589 -152 1321 -136 1847 41 58
20 128 46 155 59 l50 22 -1204 1 c-662 1 -1202 -1 -1200 -4z"/>
<path d="M10960 6590 l0 -30 870 0 870 0 0 30 0 30 -870 0 -870 0 0 -30z"/>
<path d="M15410 6590 l0 -30 1250 0 1250 0 0 30 0 30 -1250 0 -1250 0 0 -30z"/>
<path d="M18120 6590 l0 -30 1315 0 1315 0 0 30 0 30 -1315 0 -1315 0 0 -30z"/>
<path d="M21825 6595 c128 -39 407 -101 575 -129 205 -34 394 -52 685 -67 542
-27 905 23 1283 176 50 20 92 39 92 41 0 2 -611 4 -1357 3 l-1358 0 80 -24z"/>
<path d="M13747 5278 c-66 -84 -59 -90 29 -22 83 64 83 64 42 64 -31 0 -42 -7
-71 -42z"/>
<path d="M12789 5150 c-156 -27 -247 -155 -237 -329 10 -173 117 -278 294
-289 110 -7 252 33 222 63 -3 3 -27 -2 -54 -10 -27 -8 -83 -15 -124 -15 -155
0 -220 83 -220 280 0 95 16 162 51 210 36 50 80 70 151 70 75 0 121 -25 132
-72 7 -27 15 -38 28 -38 15 0 18 8 18 55 l0 54 -37 10 c-58 14 -173 20 -224
11z"/>
<path d="M13683 5150 c-100 -21 -191 -101 -218 -193 -22 -74 -19 -175 6 -243
57 -150 233 -223 395 -163 149 56 221 230 168 410 -20 67 -107 158 -169 176
-59 18 -135 23 -182 13z m158 -43 c58 -38 83 -104 88 -231 5 -165 -23 -261
-90 -300 -38 -22 -142 -21 -180 1 -18 11 -41 41 -57 73 -25 52 -27 63 -27 195
0 129 2 144 25 190 34 68 77 95 150 95 42 0 66 -6 91 -23z"/>
<path d="M17388 5150 c-149 -26 -238 -141 -238 -305 0 -187 107 -303 289 -312
42 -2 108 2 146 10 l70 13 5 105 5 104 28 3 c15 2 27 9 27 18 0 11 -22 14
-120 14 -98 0 -120 -3 -120 -14 0 -9 12 -16 28 -18 l27 -3 3 -104 3 -103 -78
3 c-94 5 -127 24 -163 96 -23 44 -25 59 -25 188 0 129 2 144 25 189 34 67 66
89 140 94 61 4 145 -12 157 -31 3 -6 9 -24 13 -41 4 -22 12 -31 25 -31 17 0
20 8 23 51 l3 52 -48 11 c-71 15 -172 21 -225 11z"/>
<path d="M22865 5151 c-81 -21 -133 -72 -142 -140 -9 -69 37 -126 172 -208 92
-56 107 -78 102 -147 -6 -70 -37 -96 -116 -96 -68 0 -108 24 -113 68 -2 19 -9
28 -25 30 -21 3 -23 0 -23 -52 l0 -55 57 -11 c160 -34 293 20 323 129 22 81
-22 143 -160 225 -103 61 -124 87 -117 146 7 59 41 90 101 90 55 0 94 -28 98
-73 2 -24 8 -33 26 -35 21 -3 22 0 22 52 l0 55 -37 10 c-58 15 -135 21 -168
12z"/>
<path d="M7302 5123 c-21 -59 -236 -519 -250 -535 -8 -10 -23 -18 -34 -18 -10
0 -18 -7 -18 -15 0 -13 12 -15 72 -13 46 2 73 7 76 16 2 7 -6 12 -22 12 -34 0
-34 29 -1 104 l25 56 139 0 138 0 27 -60 c32 -72 31 -94 -7 -98 -15 -2 -27 -9
-27 -18 0 -11 22 -14 120 -14 100 0 120 3 120 15 0 8 -8 15 -18 15 -11 0 -26
8 -35 18 -9 9 -72 139 -140 287 -74 160 -131 271 -140 273 -9 2 -19 -8 -25
-25z m48 -229 c27 -59 50 -113 50 -120 0 -11 -24 -14 -110 -14 -95 0 -110 2
-110 16 0 28 94 224 107 224 7 0 35 -48 63 -106z"/>
<path d="M10251 4880 c-69 -149 -131 -279 -138 -290 -8 -11 -23 -20 -34 -20
-10 0 -19 -7 -19 -15 0 -13 13 -15 73 -13 68 3 99 19 50 26 -31 5 -30 41 2
110 l24 52 139 0 140 0 26 -66 c30 -75 28 -94 -9 -94 -16 0 -25 -6 -25 -15 0
-13 17 -15 117 -13 78 2 118 7 120 15 3 6 -8 13 -24 15 -29 3 -33 10 -237 451
-32 70 -64 127 -70 127 -7 0 -67 -122 -135 -270z m158 10 c28 -60 51 -114 51
-120 0 -12 -230 -14 -230 -2 -1 20 105 232 115 232 7 0 35 -49 64 -110z"/>
<path d="M18667 5123 c-8 -15 -61 -129 -117 -253 -150 -330 -131 -300 -193
-300 -45 0 -57 4 -79 28 -38 41 -158 208 -158 220 0 6 13 19 29 28 108 64 112
228 8 278 -28 13 -68 16 -211 16 -114 0 -176 -4 -176 -10 0 -6 14 -13 30 -17
l30 -6 -2 -266 -3 -266 -27 -3 c-16 -2 -28 -9 -28 -18 0 -11 22 -14 115 -14
96 0 115 3 115 15 0 8 -9 15 -20 15 -30 0 -40 38 -40 146 l0 94 38 0 c37 -1
38 -2 121 -135 l85 -135 163 0 c138 0 163 2 163 15 0 9 -9 15 -25 15 -33 0
-33 25 1 101 l27 59 138 0 138 0 26 -57 c32 -70 30 -97 -7 -101 -16 -2 -28 -9
-28 -18 0 -11 22 -14 120 -14 97 0 120 3 120 14 0 8 -10 16 -22 18 -29 4 -39
23 -177 321 -64 138 -122 252 -128 254 -7 3 -18 -8 -26 -24z m-588 -25 c28
-17 41 -52 41 -112 0 -91 -52 -146 -137 -146 l-43 0 0 141 0 142 60 -6 c33 -4
68 -12 79 -19z m629 -209 c29 -61 52 -115 52 -120 0 -5 -49 -9 -110 -9 -62 0
-110 4 -110 9 0 16 102 231 110 231 3 0 30 -50 58 -111z"/>
<path d="M21931 4881 c-67 -148 -129 -278 -137 -290 -9 -12 -26 -21 -40 -21
-16 0 -24 -5 -21 -12 5 -16 146 -18 150 -3 1 6 -8 11 -20 13 -31 5 -30 41 2
110 l24 52 139 0 140 0 26 -66 c30 -75 28 -94 -9 -94 -16 0 -25 -6 -25 -15 0
-13 17 -15 117 -13 82 2 118 7 121 16 2 7 -6 12 -22 12 -31 0 -23 -14 -177
320 -65 140 -124 256 -131 258 -9 2 -58 -93 -137 -267z m154 8 c28 -61 52
-115 53 -120 2 -5 -48 -9 -112 -9 l-116 0 9 23 c27 66 101 217 108 217 4 0 31
-50 58 -111z"/>
<path d="M23341 4881 c-68 -148 -129 -279 -137 -290 -9 -12 -24 -21 -35 -21
-10 0 -19 -7 -19 -15 0 -13 13 -15 73 -13 68 3 99 19 50 26 -31 5 -30 41 2
110 l24 52 139 0 140 0 26 -66 c30 -75 28 -94 -9 -94 -16 0 -25 -6 -25 -15 0
-13 17 -15 117 -13 82 2 118 7 121 16 2 7 -6 12 -22 12 -30 0 -40 18 -201 368
-54 116 -103 212 -109 212 -7 0 -67 -121 -135 -269z m154 3 c30 -65 55 -119
55 -120 0 -2 -49 -4 -110 -4 -60 0 -110 4 -110 9 0 8 85 205 97 224 2 4 6 7 9
7 2 0 29 -52 59 -116z"/>
<path d="M4742 5128 c3 -7 15 -15 29 -18 l24 -6 5 -204 c5 -187 8 -209 29
-252 12 -27 36 -57 51 -68 100 -71 254 -66 331 11 49 49 59 97 59 286 0 208 4
229 41 237 16 3 29 10 29 16 0 6 -35 10 -90 10 -89 0 -118 -12 -60 -25 20 -4
32 -14 36 -31 3 -13 4 -113 2 -221 -3 -165 -7 -204 -22 -234 -24 -48 -66 -71
-130 -73 -72 -1 -101 9 -128 47 -22 31 -23 40 -26 265 l-3 233 30 10 c58 20
31 29 -90 29 -91 0 -120 -3 -117 -12z"/>
<path d="M5380 5131 c0 -5 13 -12 29 -16 22 -5 30 -13 35 -37 10 -50 7 -454
-4 -482 -7 -19 -17 -26 -35 -26 -16 0 -25 -6 -25 -15 0 -12 17 -15 90 -15 73
0 90 3 90 15 0 9 -9 15 -25 15 -14 0 -29 8 -35 19 -6 12 -10 98 -10 210 0 151
3 191 13 191 7 0 89 -104 182 -230 162 -221 170 -231 199 -228 l31 3 3 283 2
283 30 11 c52 18 33 28 -55 28 -88 0 -107 -10 -55 -29 l30 -10 0 -207 c0 -204
0 -206 -20 -193 -11 8 -89 109 -173 224 l-154 210 -71 3 c-42 2 -72 -1 -72 -7z"/>
<path d="M6050 5130 c0 -6 14 -13 30 -17 l30 -6 -2 -266 -3 -266 -27 -3 c-16
-2 -28 -9 -28 -18 0 -11 22 -14 120 -14 95 0 120 3 120 14 0 7 -13 16 -30 20
l-30 6 0 260 0 261 30 10 c57 20 30 29 -90 29 -75 0 -120 -4 -120 -10z"/>
<path d="M6340 5132 c0 -5 15 -13 33 -18 l32 -10 3 -253 c2 -265 1 -277 -41
-283 -12 -2 -20 -7 -17 -13 3 -6 78 -10 195 -10 216 1 248 9 320 80 62 63 80
114 80 230 0 110 -14 152 -71 209 -66 66 -88 71 -321 74 -127 2 -213 0 -213
-6z m386 -42 c80 -34 110 -117 102 -277 -8 -154 -60 -224 -174 -239 -72 -9
-116 4 -125 36 -9 34 -11 495 -2 504 12 12 155 -5 199 -24z"/>
<path d="M7690 5131 c0 -5 12 -12 27 -16 15 -3 31 -12 35 -18 12 -19 10 -485
-2 -508 -6 -11 -21 -19 -36 -19 -16 0 -24 -5 -21 -12 3 -10 51 -13 198 -12
219 1 238 5 314 75 65 60 89 124 89 234 0 108 -23 165 -87 220 -64 55 -113 65
-329 65 -103 0 -188 -4 -188 -9z m299 -21 c92 -12 133 -37 163 -98 20 -41 23
-62 23 -163 0 -109 -2 -119 -30 -174 -38 -75 -80 -98 -175 -99 -105 -1 -100
-16 -100 285 l0 259 23 0 c12 0 55 -5 96 -10z"/>
<path d="M8630 5130 c0 -6 14 -13 30 -17 l30 -6 -2 -266 -3 -266 -27 -3 c-17
-2 -28 -9 -28 -19 0 -13 24 -15 193 -11 173 3 197 6 242 26 68 31 108 73 141
145 22 51 27 75 27 143 0 70 -4 91 -27 138 -15 31 -43 69 -62 85 -63 51 -115
61 -325 61 -122 0 -189 -4 -189 -10z m290 -20 c96 -15 137 -40 170 -104 23
-44 21 -269 -2 -316 -43 -86 -84 -110 -186 -110 -74 0 -80 2 -86 23 -8 30 -8
502 1 510 9 9 26 9 103 -3z"/>
<path d="M9300 5131 c0 -5 12 -12 27 -16 15 -3 31 -12 35 -18 12 -19 10 -485
-2 -508 -6 -11 -21 -19 -36 -19 -16 0 -24 -5 -22 -12 4 -10 60 -14 226 -16
l222 -2 0 50 c0 42 -3 50 -19 50 -12 0 -21 -10 -26 -27 -3 -15 -12 -31 -18
-35 -20 -13 -182 -9 -195 4 -8 8 -12 54 -12 140 l0 128 75 0 c71 0 76 -1 85
-25 17 -43 30 -28 30 35 0 61 -14 81 -26 35 -6 -24 -9 -25 -85 -25 l-79 0 0
125 0 125 78 -1 c104 -1 126 -8 130 -42 3 -21 9 -27 28 -27 22 0 24 4 24 45
l0 45 -220 0 c-122 0 -220 -4 -220 -9z"/>
<path d="M10750 5084 c0 -52 1 -55 23 -52 17 2 23 11 27 38 6 40 23 47 113 49
l57 1 0 -264 c0 -279 0 -280 -48 -288 -12 -1 -23 -7 -22 -13 0 -6 52 -11 130
-13 109 -2 130 0 130 12 0 9 -12 16 -32 18 -29 3 -33 7 -40 42 -5 22 -7 143
-6 270 l3 231 78 -1 c85 0 97 -7 97 -56 0 -23 4 -28 25 -28 24 0 25 3 25 55
l0 55 -280 0 -280 0 0 -56z"/>
<path d="M11350 5131 c0 -4 15 -12 33 -17 l32 -10 3 -253 c2 -265 1 -277 -41
-283 -12 -2 -21 -7 -19 -13 1 -6 85 -10 225 -10 l222 0 3 48 c3 45 2 47 -22
47 -20 0 -26 -5 -26 -23 0 -40 -18 -47 -117 -47 -81 0 -94 2 -103 19 -5 11
-10 74 -10 141 l0 121 78 -3 c69 -3 78 -5 87 -25 19 -44 35 -27 35 37 0 45 -3
60 -14 60 -8 0 -16 -10 -18 -22 -3 -21 -9 -23 -86 -26 l-83 -3 3 123 3 123 67
3 c95 4 132 -7 136 -41 3 -21 9 -27 28 -27 22 0 24 4 24 45 l0 45 -220 0
c-121 0 -220 -4 -220 -9z"/>
<path d="M11870 5131 c0 -5 14 -14 30 -20 l30 -10 0 -253 c0 -263 -2 -278 -42
-278 -10 0 -18 -7 -18 -15 0 -12 16 -15 85 -15 67 0 85 3 85 14 0 9 -12 16
-27 18 l-28 3 -3 207 c-2 177 0 207 12 202 8 -3 74 -87 147 -187 191 -263 195
-267 230 -267 l29 0 0 259 c0 305 2 318 41 326 57 13 27 25 -61 25 -88 0 -118
-12 -61 -25 18 -4 31 -14 35 -28 3 -12 6 -106 6 -209 0 -153 -3 -188 -14 -188
-7 0 -87 101 -177 225 l-164 225 -67 0 c-38 0 -68 -4 -68 -9z"/>
<path d="M13140 5131 c0 -5 14 -14 30 -20 l30 -10 0 -253 c0 -263 -2 -278 -42
-278 -10 0 -18 -7 -18 -15 0 -12 20 -15 120 -15 98 0 120 3 120 14 0 9 -12 16
-27 18 -25 3 -29 8 -35 48 -8 58 -10 369 -2 437 6 46 9 52 35 57 16 3 29 10
29 16 0 6 -45 10 -120 10 -66 0 -120 -4 -120 -9z"/>
<path d="M14120 5130 c0 -6 13 -13 29 -16 25 -5 29 -11 35 -51 8 -58 6 -418
-3 -458 -5 -23 -12 -31 -34 -33 -16 -2 -27 -9 -27 -18 0 -12 16 -14 87 -12 58
2 88 7 91 16 2 7 -6 12 -22 12 -15 0 -30 8 -36 19 -6 12 -10 98 -10 211 0 161
2 191 14 188 8 -2 90 -106 182 -231 160 -220 168 -228 198 -225 l31 3 3 283 2
283 30 11 c52 18 33 28 -55 28 -88 0 -107 -10 -55 -29 l30 -10 0 -205 c0 -158
-3 -206 -12 -206 -7 1 -87 102 -176 225 l-164 225 -69 0 c-40 0 -69 -4 -69
-10z"/>
<path d="M15050 5131 c0 -5 13 -12 29 -16 18 -4 31 -14 35 -28 10 -37 7 -464
-4 -491 -7 -19 -17 -26 -36 -26 -16 0 -24 -5 -21 -12 5 -16 236 -19 240 -3 1
6 -8 11 -20 13 -42 6 -43 18 -41 283 l3 253 33 10 c62 17 31 26 -93 26 -69 0
-125 -4 -125 -9z"/>
<path d="M15350 5130 c0 -6 14 -13 30 -17 l30 -6 -2 -266 -3 -266 -27 -3 c-17
-2 -28 -9 -28 -18 0 -12 16 -14 87 -12 58 2 88 7 91 16 2 7 -6 12 -20 12 -45
0 -48 12 -48 222 0 152 3 198 13 198 6 0 88 -104 181 -231 162 -222 169 -230
200 -227 l31 3 3 286 2 287 30 6 c62 12 29 26 -60 26 -93 0 -115 -10 -57 -26
l32 -10 3 -207 c2 -162 0 -207 -10 -207 -7 0 -87 102 -177 225 l-164 225 -68
0 c-41 0 -69 -4 -69 -10z"/>
<path d="M16010 5085 c0 -52 1 -55 25 -55 21 0 25 5 25 28 0 49 12 56 97 56
l78 1 3 -238 c3 -278 -1 -301 -46 -305 -20 -2 -32 -9 -32 -18 0 -12 21 -14
130 -12 76 2 131 7 133 13 1 6 -9 12 -23 13 -50 7 -50 7 -50 288 l0 264 58 -1
c89 -2 106 -9 112 -49 4 -27 10 -36 28 -38 21 -3 22 0 22 52 l0 56 -280 0
-280 0 0 -55z"/>
<path d="M16620 5131 c0 -5 13 -12 29 -16 18 -4 31 -14 35 -28 10 -39 7 -477
-4 -498 -6 -11 -21 -19 -36 -19 -16 0 -24 -5 -22 -12 4 -10 60 -14 226 -16
l222 -2 0 50 c0 43 -3 50 -20 50 -13 0 -22 -9 -26 -27 -4 -16 -12 -31 -18 -35
-19 -13 -181 -9 -194 4 -8 8 -12 54 -12 140 l0 128 75 0 c71 0 76 -1 85 -25
17 -44 30 -28 30 36 0 44 -3 60 -12 57 -7 -3 -14 -14 -16 -26 -3 -20 -9 -22
-83 -22 l-79 0 0 125 0 125 78 -1 c104 -1 126 -8 130 -42 3 -21 9 -27 28 -27
22 0 24 4 24 45 l0 45 -220 0 c-127 0 -220 -4 -220 -9z"/>
<path d="M19050 5131 c0 -4 15 -12 33 -17 l32 -10 3 -253 c3 -270 1 -281 -45
-281 -15 0 -23 -5 -20 -12 3 -10 57 -13 228 -13 l224 0 3 63 c3 61 2 62 -23
62 -23 0 -25 -4 -25 -44 0 -53 -7 -56 -128 -56 -79 0 -83 1 -92 26 -11 27 -14
454 -4 490 4 14 16 24 35 28 16 3 29 10 29 16 0 6 -46 10 -125 10 -69 0 -125
-4 -125 -9z"/>
<path d="M19810 5132 c0 -5 12 -13 27 -17 15 -3 31 -12 35 -18 4 -7 8 -123 8
-258 0 -258 -1 -262 -44 -270 -11 -2 -18 -8 -15 -14 2 -6 77 -10 194 -10 172
0 194 3 235 22 76 35 129 98 154 182 45 152 -8 300 -128 364 -38 20 -58 22
-253 25 -132 2 -213 0 -213 -6z m362 -33 c48 -13 76 -36 100 -82 20 -37 23
-57 23 -162 0 -113 -2 -123 -30 -180 -39 -76 -80 -100 -178 -100 -101 0 -97
-11 -97 293 l0 254 76 -7 c41 -4 89 -11 106 -16z"/>
<path d="M20490 5131 c0 -5 14 -14 30 -20 l30 -10 -2 -263 -3 -263 -27 -3
c-16 -2 -28 -9 -28 -18 0 -12 36 -14 225 -14 l225 0 0 50 c0 47 -2 50 -25 50
-19 0 -25 -5 -25 -23 0 -40 -18 -47 -117 -47 -91 0 -94 1 -103 26 -6 14 -10
77 -10 140 l0 114 69 0 c82 0 101 -6 101 -31 0 -10 7 -19 15 -19 12 0 15 13
15 60 0 47 -3 60 -15 60 -9 0 -15 -9 -15 -25 0 -25 -1 -25 -80 -25 l-80 0 0
125 0 125 63 0 c34 0 79 -3 100 -6 33 -6 37 -10 37 -35 0 -24 4 -29 25 -29 23
0 25 4 25 45 l0 45 -215 0 c-121 0 -215 -4 -215 -9z"/>
<path d="M21260 5131 c0 -5 13 -12 29 -16 22 -5 30 -13 35 -37 8 -41 6 -447
-3 -478 -5 -18 -15 -26 -34 -28 -15 -2 -27 -10 -27 -18 0 -12 34 -14 228 -12
l227 3 3 63 c3 61 2 62 -23 62 -23 0 -25 -4 -25 -40 0 -29 -5 -42 -19 -50 -30
-16 -186 -13 -200 4 -8 9 -11 88 -9 267 l3 253 33 10 c62 17 31 26 -93 26 -69
0 -125 -4 -125 -9z"/>
<path d="M23840 5130 c0 -6 13 -13 29 -16 38 -8 41 -28 40 -279 -2 -241 -4
-259 -42 -263 -15 -2 -27 -9 -27 -18 0 -12 36 -14 225 -14 l225 0 0 65 c0 58
-2 65 -20 65 -17 0 -20 -7 -20 -40 0 -29 -5 -42 -19 -50 -30 -16 -186 -13
-200 4 -8 9 -11 88 -9 267 l3 253 33 10 c62 17 31 26 -93 26 -79 0 -125 -4
-125 -10z"/>
<path d="M24330 5126 c0 -9 12 -16 28 -18 l27 -3 5 -205 c5 -196 6 -208 31
-255 42 -83 120 -120 234 -113 103 6 170 57 195 147 5 20 10 115 10 211 0 96
3 185 6 197 4 14 17 24 35 28 57 13 27 25 -61 25 -89 0 -122 -14 -61 -26 28
-6 30 -10 37 -62 4 -30 4 -128 2 -217 -6 -178 -17 -220 -70 -259 -37 -26 -143
-28 -183 -2 -49 32 -55 65 -55 309 l0 225 30 6 c17 3 30 10 30 16 0 6 -45 10
-120 10 -98 0 -120 -3 -120 -14z"/>
<path d="M24970 5130 c0 -6 14 -13 30 -17 l30 -6 -2 -266 -3 -266 -27 -3 c-17
-2 -28 -9 -28 -19 0 -13 24 -15 193 -11 215 4 263 17 325 81 120 125 114 367
-11 461 -63 47 -112 56 -317 56 -123 0 -190 -4 -190 -10z m377 -43 c77 -40
109 -124 101 -266 -8 -126 -43 -197 -115 -227 -37 -16 -141 -18 -163 -4 -13 8
-15 51 -18 266 l-3 257 84 -5 c46 -3 97 -13 114 -21z"/>
<path d="M10373 4190 c-167 -34 -264 -188 -233 -369 14 -79 45 -137 102 -186
120 -102 341 -80 432 43 91 125 85 312 -13 425 -61 69 -188 107 -288 87z m164
-46 c59 -45 89 -154 80 -299 -8 -115 -21 -158 -60 -202 -38 -40 -100 -57 -162
-43 -58 13 -87 41 -114 106 -19 49 -23 77 -24 169 -1 165 27 237 108 284 31
18 140 9 172 -15z"/>
<path d="M12488 4191 c-40 -8 -83 -33 -111 -64 -22 -26 -39 -90 -31 -121 10
-43 72 -104 159 -156 47 -28 91 -61 100 -73 24 -35 19 -110 -10 -145 -58 -69
-205 -37 -205 44 0 19 -5 24 -25 24 -24 0 -25 -3 -25 -53 l0 -54 51 -11 c158
-37 299 14 331 119 24 83 -17 149 -143 224 -125 74 -129 79 -129 141 0 47 4
59 26 79 19 18 38 25 65 25 62 0 88 -18 100 -67 8 -32 16 -43 30 -43 16 0 19
8 19 55 l0 54 -37 10 c-60 15 -125 20 -165 12z"/>
<path d="M14255 4194 c-11 -3 -30 -7 -43 -10 -38 -8 -101 -72 -112 -115 -20
-74 27 -143 145 -211 111 -64 125 -81 125 -149 0 -47 -4 -60 -25 -82 -64 -63
-205 -30 -205 49 0 19 -5 24 -25 24 -24 0 -25 -3 -25 -54 l0 -53 57 -12 c162
-32 290 14 324 117 28 86 -11 147 -152 233 -55 34 -104 69 -109 79 -6 10 -10
39 -10 63 0 60 35 97 92 97 62 0 94 -22 102 -70 6 -35 10 -41 29 -38 19 3 22
10 25 54 l3 51 -43 11 c-58 14 -128 21 -153 16z"/>
<path d="M16358 4191 c-98 -20 -164 -110 -139 -190 14 -48 73 -104 169 -160
39 -23 78 -51 87 -63 22 -33 20 -110 -6 -141 -55 -71 -209 -46 -209 35 0 23
-4 28 -25 28 -24 0 -25 -3 -25 -54 l0 -54 50 -11 c67 -14 153 -14 203 1 55 16
112 73 128 126 11 38 10 48 -7 90 -17 41 -30 54 -114 109 -52 34 -107 71 -122
83 -49 38 -46 129 6 165 11 8 39 15 62 15 53 0 92 -29 96 -73 2 -24 8 -33 26
-35 21 -3 22 0 22 52 l0 55 -37 10 c-60 15 -125 20 -165 12z"/>
<path d="M21493 4191 c-84 -21 -143 -85 -143 -154 0 -71 52 -127 194 -207 84
-47 109 -117 66 -187 -46 -76 -199 -60 -214 22 -5 26 -12 35 -26 35 -17 0 -20
-7 -20 -54 l0 -55 57 -11 c78 -17 178 -8 230 19 24 12 55 39 69 61 23 34 26
48 22 95 -6 69 -37 105 -155 176 -99 60 -123 88 -123 141 0 30 7 46 29 69 60
59 171 27 171 -51 0 -25 4 -30 25 -30 24 0 25 3 25 55 l0 54 -37 10 c-60 15
-135 20 -170 12z"/>
<path d="M6523 4178 c-5 -7 -63 -130 -128 -273 -65 -143 -125 -268 -133 -277
-8 -10 -23 -18 -34 -18 -10 0 -18 -7 -18 -15 0 -13 12 -15 72 -13 46 2 73 7
76 16 2 7 -6 12 -22 12 -34 0 -34 29 0 104 l25 56 139 0 138 0 27 -64 c31 -72
28 -96 -10 -96 -16 0 -25 -6 -25 -15 0 -12 20 -15 120 -15 95 0 120 3 120 14
0 7 -13 16 -28 19 -27 5 -39 27 -160 289 -71 155 -134 284 -140 286 -5 1 -13
-3 -19 -10z m36 -244 c28 -59 51 -113 51 -120 0 -11 -23 -14 -110 -14 -94 0
-110 2 -110 16 0 28 93 224 106 224 7 0 35 -48 63 -106z"/>
<path d="M7791 4148 c-27 -62 -203 -446 -226 -493 l-20 -40 -60 0 -60 0 -82
110 c-46 61 -83 119 -82 130 0 11 13 29 31 40 70 44 97 161 52 222 -41 56 -71
63 -266 63 -115 0 -178 -4 -178 -10 0 -6 13 -13 29 -16 19 -4 31 -14 35 -28
10 -38 7 -476 -4 -497 -6 -11 -21 -19 -35 -19 -16 0 -25 -6 -25 -15 0 -12 19
-15 115 -15 93 0 115 3 115 14 0 8 -10 16 -22 18 -22 3 -23 7 -26 121 l-3 117
33 0 c31 0 37 -7 118 -135 l85 -135 163 0 c137 0 162 2 162 15 0 10 -10 15
-26 15 -24 0 -26 3 -20 30 3 17 15 53 27 80 l21 50 140 0 139 0 25 -55 c13
-31 24 -67 24 -80 0 -21 -5 -25 -31 -25 -20 0 -29 -4 -27 -12 3 -9 39 -14 121
-16 100 -2 117 0 117 13 0 8 -8 15 -19 15 -10 0 -24 6 -30 14 -7 8 -67 133
-134 278 -67 145 -126 269 -130 276 -14 22 -27 13 -46 -30z m-580 -26 c25 -23
32 -38 36 -78 7 -85 -43 -150 -125 -161 l-42 -6 0 137 0 136 50 0 c40 0 56 -5
81 -28z m632 -185 c26 -56 47 -110 47 -119 0 -16 -12 -18 -110 -18 -63 0 -110
4 -110 10 0 9 71 174 91 212 18 34 34 18 82 -85z"/>
<path d="M13594 3973 c-147 -323 -165 -357 -191 -361 -13 -2 -23 -10 -23 -18
0 -12 14 -14 73 -12 68 3 99 19 50 26 -31 5 -30 41 2 110 l24 52 138 0 138 0
23 -53 c31 -73 30 -105 -5 -109 -16 -2 -27 -7 -26 -13 4 -13 223 -19 236 -6 7
7 4 12 -9 16 -10 4 -25 10 -33 14 -8 4 -73 134 -144 289 -72 155 -135 282
-142 282 -6 0 -56 -98 -111 -217z m86 56 c0 -6 23 -58 50 -116 28 -58 50 -107
50 -109 0 -2 -52 -4 -116 -4 -64 0 -114 4 -112 8 46 112 106 232 115 232 7 0
13 -5 13 -11z"/>
<path d="M19069 3983 c-144 -318 -170 -367 -196 -371 -13 -2 -23 -10 -23 -18
0 -12 14 -14 73 -12 68 3 99 19 50 26 -31 5 -30 41 2 110 l24 52 139 0 139 0
28 -69 c29 -74 28 -91 -11 -91 -15 0 -24 -6 -24 -15 0 -13 17 -15 117 -13 82
2 118 7 121 16 2 7 -6 12 -22 12 -30 0 -41 20 -201 368 -54 116 -103 212 -109
212 -7 0 -55 -93 -107 -207z m170 -170 c1 -10 -26 -13 -104 -13 -58 0 -105 3
-105 8 0 4 23 58 52 121 l53 114 52 -109 c28 -60 52 -115 52 -121z"/>
<path d="M22971 4148 c-37 -84 -198 -434 -222 -483 -16 -32 -33 -51 -48 -55
-47 -11 -24 -25 47 -28 59 -2 72 0 72 13 0 10 -9 15 -26 15 -24 0 -26 3 -20
30 3 17 15 53 27 80 l21 50 140 0 139 0 25 -55 c13 -31 24 -67 24 -80 0 -21
-5 -25 -31 -25 -20 0 -29 -4 -27 -12 3 -9 39 -14 121 -16 100 -2 117 0 117 13
0 8 -8 15 -19 15 -10 0 -24 6 -30 14 -7 8 -67 133 -134 278 -67 145 -126 269
-130 276 -14 22 -27 13 -46 -30z m47 -216 c29 -60 52 -114 52 -120 0 -9 -33
-12 -111 -12 -85 0 -110 3 -106 13 29 74 101 227 107 227 4 0 30 -49 58 -108z"/>
<path d="M5710 4171 c0 -5 14 -14 30 -20 l30 -10 -2 -263 -3 -263 -27 -3 c-17
-2 -28 -9 -28 -18 0 -12 20 -14 123 -12 73 2 122 7 122 13 0 6 -11 12 -25 13
-45 7 -50 18 -50 122 l0 98 63 7 c118 12 187 48 213 111 20 48 18 133 -5 170
-34 56 -68 64 -265 64 -98 0 -176 -4 -176 -9z m302 -32 c46 -25 63 -143 30
-209 -20 -41 -71 -70 -124 -70 l-38 0 0 145 0 145 56 0 c30 0 64 -5 76 -11z"/>
<path d="M8417 4173 c-5 -4 7 -13 25 -19 l33 -11 3 -244 c1 -134 0 -254 -3
-266 -3 -14 -14 -23 -30 -25 -14 -2 -25 -7 -25 -13 0 -6 71 -10 193 -10 218 1
250 9 322 80 62 63 80 114 80 230 0 110 -14 152 -71 209 -66 65 -89 71 -314
74 -113 2 -209 0 -213 -5z m358 -35 c85 -22 125 -101 125 -251 -1 -131 -36
-218 -102 -254 -41 -21 -170 -25 -190 -5 -10 10 -14 74 -16 259 -2 135 -1 251
2 258 5 15 112 10 181 -7z"/>
<path d="M9090 4170 c0 -6 14 -13 30 -17 l30 -6 -2 -266 -3 -266 -27 -3 c-16
-2 -28 -9 -28 -18 0 -12 36 -14 225 -14 l225 0 0 50 c0 47 -2 50 -25 50 -21 0
-25 -5 -25 -30 0 -37 -16 -42 -130 -38 l-85 3 -3 138 -3 137 65 0 c77 0 96 -6
96 -31 0 -10 7 -19 15 -19 12 0 15 13 15 61 0 44 -3 60 -12 57 -7 -3 -14 -14
-16 -26 -3 -20 -9 -22 -83 -22 l-79 0 0 120 0 120 99 0 100 0 3 -27 c2 -20 9
-29 26 -31 20 -3 22 1 22 42 l0 46 -215 0 c-140 0 -215 -4 -215 -10z"/>
<path d="M9600 4171 c0 -5 14 -14 30 -20 l30 -10 -2 -263 -3 -263 -27 -3 c-16
-2 -28 -9 -28 -18 0 -11 23 -14 125 -14 104 0 125 2 125 15 0 10 -10 15 -30
15 -41 0 -50 23 -50 128 l0 90 63 7 c88 10 131 24 171 57 65 53 80 165 32 234
-33 46 -72 54 -260 54 -98 0 -176 -4 -176 -9z m317 -45 c24 -21 28 -32 31 -93
6 -111 -29 -160 -122 -170 l-56 -6 0 147 0 146 59 0 c49 0 65 -5 88 -24z"/>
<path d="M10810 4171 c0 -5 14 -14 30 -20 l30 -10 -2 -263 -3 -263 -27 -3
c-17 -2 -28 -9 -28 -18 0 -12 19 -14 110 -12 63 2 111 7 112 13 1 6 -7 12 -18
14 -30 5 -34 19 -34 134 l0 108 36 -3 c35 -3 40 -8 119 -133 l82 -130 81 -3
c65 -2 82 0 82 11 0 8 -12 17 -28 20 -20 4 -45 30 -96 98 -38 51 -76 105 -85
121 -16 28 -16 28 31 68 99 85 89 220 -19 266 -37 16 -373 20 -373 5z m307
-36 c42 -30 55 -136 22 -196 -17 -32 -70 -59 -116 -59 l-43 0 0 135 0 135 58
0 c35 0 66 -6 79 -15z"/>
<path d="M11410 4125 c0 -51 2 -55 24 -55 20 0 24 6 30 39 6 38 7 39 53 43 27
3 65 3 86 0 l37 -4 -1 -242 c-1 -132 -4 -252 -8 -266 -5 -19 -14 -26 -39 -28
-20 -2 -32 -9 -32 -18 0 -12 21 -14 130 -12 76 2 131 7 133 13 1 6 -9 12 -23
13 -50 7 -50 7 -50 284 l0 259 83 -3 82 -3 5 -35 c4 -27 10 -36 28 -38 21 -3
22 0 22 52 l0 56 -280 0 -280 0 0 -55z"/>
<path d="M12020 4170 c0 -6 13 -13 29 -16 19 -4 31 -14 35 -28 10 -38 7 -476
-4 -497 -6 -11 -21 -19 -35 -19 -16 0 -25 -6 -25 -15 0 -13 18 -15 123 -13 71
2 122 7 122 13 0 5 -9 11 -20 13 -44 9 -45 13 -45 271 0 135 4 251 8 258 4 6
20 15 35 18 59 15 21 25 -98 25 -79 0 -125 -4 -125 -10z"/>
<path d="M12790 4125 c0 -47 3 -55 19 -55 21 0 31 19 31 56 0 23 2 24 85 24
l85 0 0 -259 c0 -274 0 -275 -48 -283 -12 -1 -23 -7 -22 -13 0 -6 52 -11 130
-13 109 -2 130 0 130 12 0 9 -12 16 -32 18 -25 2 -34 9 -39 28 -4 14 -7 134
-8 266 -1 202 1 243 13 247 8 3 47 3 86 0 l70 -6 6 -38 c6 -33 10 -39 31 -39
23 0 24 3 21 53 l-3 52 -277 3 -278 2 0 -55z"/>
<path d="M14780 4171 c0 -5 13 -12 29 -16 25 -5 44 -30 121 -152 l91 -146 -3
-121 -3 -121 -27 -3 c-16 -2 -28 -9 -28 -18 0 -11 22 -14 120 -14 98 0 120 3
120 14 0 9 -12 16 -27 18 l-28 3 -3 120 -2 120 88 140 c67 105 97 144 121 154
17 8 31 18 31 23 0 4 -34 8 -75 8 -71 0 -99 -11 -55 -23 13 -3 20 -14 20 -29
0 -28 -126 -238 -143 -238 -15 0 -147 217 -147 242 0 13 10 20 30 24 16 4 27
10 24 15 -7 12 -254 12 -254 0z"/>
<path d="M15680 4171 c0 -5 14 -14 30 -20 l30 -10 -2 -263 -3 -263 -27 -3
c-16 -2 -28 -9 -28 -18 0 -12 36 -14 225 -14 l225 0 0 50 c0 47 -2 50 -25 50
-19 0 -25 -5 -25 -23 0 -40 -18 -47 -117 -47 -91 0 -94 1 -103 26 -6 14 -10
77 -10 140 l0 114 69 0 c82 0 101 -6 101 -31 0 -10 7 -19 15 -19 12 0 15 13
15 60 0 47 -3 60 -15 60 -9 0 -15 -9 -15 -25 0 -25 -1 -25 -80 -25 l-80 0 0
119 0 119 32 4 c17 3 62 3 100 0 67 -5 68 -5 68 -33 0 -24 4 -29 25 -29 23 0
25 4 25 45 l0 45 -215 0 c-121 0 -215 -4 -215 -9z"/>
<path d="M16657 4173 c-9 -8 -9 -66 -1 -87 3 -9 14 -16 24 -16 13 0 20 10 25
39 l6 39 77 4 c42 3 80 3 85 1 11 -6 9 -501 -3 -524 -7 -12 -21 -19 -40 -19
-20 0 -30 -5 -30 -15 0 -13 19 -15 132 -13 94 2 133 7 136 16 2 8 -7 12 -25
12 -52 0 -53 4 -53 285 l0 261 58 -2 c31 -1 69 -2 83 -3 23 -1 27 -7 33 -41 5
-31 11 -40 26 -40 18 0 20 7 20 55 l0 55 -273 0 c-151 0 -277 -3 -280 -7z"/>
<path d="M17252 4168 c3 -7 16 -14 30 -16 35 -4 38 -19 38 -215 0 -205 9 -246
65 -303 33 -32 55 -45 98 -54 112 -25 219 3 262 69 36 55 44 110 45 301 0 96
4 180 8 186 4 6 17 14 30 18 46 15 19 26 -63 26 -88 0 -107 -10 -55 -29 l30
-10 0 -213 c0 -235 -9 -277 -65 -314 -41 -26 -145 -25 -182 2 -52 39 -57 62
-61 282 -2 111 -1 213 2 226 4 16 15 25 36 29 16 4 30 11 30 17 0 6 -47 10
-126 10 -96 0 -125 -3 -122 -12z"/>
<path d="M17900 4172 c0 -6 14 -15 30 -21 l30 -10 -2 -263 -3 -263 -27 -3
c-17 -2 -28 -9 -28 -19 0 -13 25 -14 193 -11 187 3 193 4 250 31 108 54 163
162 155 306 -7 113 -51 185 -143 235 -37 19 -58 21 -247 24 -131 2 -208 0
-208 -6z m352 -32 c98 -27 134 -106 126 -274 -8 -156 -45 -221 -141 -247 -48
-13 -133 -7 -150 10 -8 8 -13 87 -15 266 l-4 255 74 0 c40 0 90 -5 110 -10z"/>
<path d="M18570 4170 c0 -6 14 -13 30 -17 l30 -6 -2 -266 -3 -266 -27 -3 c-16
-2 -28 -9 -28 -18 0 -11 22 -14 120 -14 98 0 120 3 120 14 0 9 -12 16 -27 18
l-28 3 -3 263 -2 263 30 10 c57 20 30 29 -90 29 -75 0 -120 -4 -120 -10z"/>
<path d="M19540 4170 c0 -6 13 -13 29 -16 38 -8 41 -28 40 -279 -2 -241 -4
-259 -42 -263 -16 -2 -27 -9 -27 -18 0 -12 16 -14 87 -12 58 2 88 7 91 16 2 7
-6 12 -22 12 -15 0 -30 8 -36 19 -6 12 -10 98 -10 211 0 161 2 191 14 188 8
-2 90 -106 182 -231 160 -220 168 -228 198 -225 l31 3 3 283 2 283 30 11 c52
18 33 28 -55 28 -88 0 -107 -10 -55 -29 l30 -10 0 -205 c0 -158 -3 -206 -12
-206 -7 1 -87 102 -176 225 l-164 225 -69 0 c-40 0 -69 -4 -69 -10z"/>
<path d="M20210 4125 c0 -47 3 -55 19 -55 15 0 21 10 26 40 l7 40 84 0 84 0 0
-251 c0 -153 -4 -258 -10 -270 -7 -12 -21 -19 -41 -19 -20 0 -29 -4 -26 -12 3
-10 38 -13 132 -13 94 0 129 3 133 13 2 8 -7 12 -27 12 -20 0 -34 7 -41 19 -6
12 -10 116 -10 269 0 208 2 251 14 255 8 3 46 3 84 0 l70 -6 6 -38 c5 -30 11
-39 26 -39 18 0 20 7 20 55 l0 55 -275 0 -275 0 0 -55z"/>
<path d="M20810 4170 c0 -5 12 -13 28 -16 15 -4 30 -12 34 -18 4 -6 8 -121 8
-257 0 -260 -2 -269 -48 -269 -14 0 -22 -5 -19 -12 3 -10 57 -13 228 -13 l224
0 3 48 c3 44 2 47 -21 47 -19 0 -26 -7 -33 -32 l-10 -33 -93 -3 c-60 -2 -98 1
-107 9 -11 9 -14 42 -14 140 l0 129 75 0 c71 0 76 -2 87 -25 6 -14 17 -25 25
-25 11 0 13 14 11 57 -3 60 -21 81 -32 38 -6 -24 -9 -25 -86 -25 l-80 0 0 120
0 121 103 -3 102 -3 3 -27 c3 -22 9 -28 28 -28 22 0 24 4 24 45 l0 45 -220 0
c-137 0 -220 -4 -220 -10z"/>
<path d="M22050 4166 c0 -9 12 -16 28 -18 l27 -3 5 -201 c6 -192 7 -202 33
-255 40 -81 107 -119 212 -119 70 0 120 16 159 51 57 49 68 97 73 325 l5 202
29 6 c16 3 29 10 29 16 0 6 -35 10 -90 10 -90 0 -122 -14 -60 -27 21 -4 32
-13 36 -29 3 -12 4 -112 2 -221 -4 -222 -13 -259 -72 -291 -37 -19 -140 -22
-173 -3 -52 27 -58 58 -61 304 l-3 228 30 10 c58 20 31 29 -89 29 -98 0 -120
-3 -120 -14z"/>
<path d="M23370 4172 c0 -6 14 -15 30 -21 l30 -10 -2 -263 -3 -263 -27 -3
c-17 -2 -28 -9 -28 -19 0 -13 25 -14 193 -11 187 3 193 4 249 31 111 54 163
154 156 297 -6 122 -47 192 -143 244 -37 19 -58 21 -247 24 -131 2 -208 0
-208 -6z m355 -33 c52 -15 99 -66 114 -123 16 -65 14 -203 -5 -266 -20 -67
-65 -114 -125 -130 -50 -14 -134 -9 -152 9 -8 8 -13 87 -15 266 l-4 255 74 0
c40 0 91 -5 113 -11z"/>
<path d="M24020 4171 c0 -5 12 -12 28 -16 22 -5 44 -34 120 -156 l92 -149 0
-108 c0 -115 -6 -132 -48 -132 -14 0 -22 -5 -19 -12 3 -10 36 -13 122 -13 86
0 119 3 123 13 2 7 -6 12 -20 12 -42 0 -48 17 -48 131 l0 108 95 149 c71 112
102 152 120 156 50 13 24 26 -50 26 -41 0 -75 -4 -75 -9 0 -5 10 -11 23 -13
13 -2 23 -11 25 -23 4 -29 -121 -229 -145 -233 -15 -2 -33 20 -81 101 -69 114
-76 143 -37 153 57 14 17 24 -100 24 -69 0 -125 -4 -125 -9z"/>
</g>
</svg>
